<?xml version="1.0" standalone="no"?>
<!DOCTYPE svg PUBLIC "-//W3C//DTD SVG 20010904//EN"
 "http://www.w3.org/TR/2001/REC-SVG-20010904/DTD/svg10.dtd">
<svg version="1.0" xmlns="http://www.w3.org/2000/svg"
 width="840.000000pt" height="345.000000pt" viewBox="0 0 840.000000 345.000000"
 preserveAspectRatio="xMidYMid meet">

<g transform="translate(0.000000,345.000000) scale(0.100000,-0.100000)"
fill="#000000" stroke="none">
<path d="M1856 3025 c-8 -8 -21 -15 -28 -15 -8 0 -27 -17 -43 -38 -19 -26 -50
-48 -92 -68 -39 -17 -75 -43 -93 -65 -34 -43 -67 -61 -141 -80 -59 -15 -75
-30 -264 -242 -6 -7 -21 -28 -33 -48 -12 -20 -40 -48 -61 -63 -22 -15 -42 -34
-45 -42 -3 -8 -13 -14 -21 -14 -25 0 -105 -59 -115 -85 -5 -13 -28 -32 -57
-45 -26 -12 -58 -26 -70 -32 -11 -6 -42 -41 -68 -79 -45 -66 -47 -68 -98 -74
-43 -6 -62 -2 -107 18 -31 13 -62 30 -70 38 -21 20 -79 39 -96 32 -8 -3 -33 2
-54 12 -33 15 -44 16 -70 5 l-30 -12 0 -989 0 -989 4000 0 4000 0 0 1054 c0
1016 -3 1116 -29 1116 -3 0 -47 -27 -96 -60 -50 -33 -95 -60 -101 -60 -6 0
-21 11 -34 26 -17 17 -34 24 -55 23 -58 -4 -74 1 -112 37 -20 19 -39 31 -41
24 -2 -6 -19 -34 -38 -61 -19 -28 -34 -55 -34 -59 0 -19 -74 -28 -85 -10 -4 6
-37 26 -73 45 -37 19 -80 43 -97 54 -38 26 -57 26 -80 1 -9 -10 -32 -24 -51
-30 -36 -12 -82 -65 -104 -118 -7 -18 -18 -36 -24 -40 -7 -4 -20 -24 -29 -44
-10 -20 -29 -51 -43 -67 l-25 -30 -186 0 -186 0 -46 -52 c-25 -29 -73 -70
-106 -92 -55 -36 -65 -38 -117 -35 -49 4 -60 8 -83 36 -15 18 -48 44 -74 59
-25 14 -59 38 -76 53 -53 48 -79 60 -123 60 -58 0 -78 -14 -244 -178 -16 -15
-36 -46 -45 -69 -18 -44 -37 -56 -100 -67 -23 -4 -47 2 -83 20 -27 14 -50 29
-50 34 0 5 -23 21 -50 35 -28 14 -71 41 -96 60 -43 33 -104 48 -104 26 0 -26
-126 -30 -145 -4 -10 13 -15 12 -45 -6 l-34 -20 -37 21 c-32 18 -41 19 -72 9
-21 -7 -52 -9 -74 -5 -46 8 -176 76 -220 115 -18 15 -39 26 -45 23 -7 -2 -40
-36 -72 -73 -42 -49 -70 -73 -99 -82 -38 -12 -40 -12 -59 11 -10 14 -58 71
-106 128 l-87 103 -40 -6 c-28 -5 -51 -18 -76 -43 -50 -52 -127 -120 -149
-132 -27 -15 -38 -12 -45 10 -8 26 -46 26 -70 0 -24 -26 -80 -44 -97 -31 -7 5
-32 26 -55 47 -38 32 -50 37 -110 40 -107 7 -121 11 -176 56 -71 58 -94 70
-145 75 -24 2 -63 12 -85 22 -23 10 -64 22 -91 26 -27 3 -54 11 -60 16 -6 5
-25 20 -42 34 -18 14 -41 25 -53 25 -19 0 -109 47 -141 75 -8 7 -31 18 -50 24
-22 7 -43 23 -54 42 -10 18 -45 58 -77 90 -55 55 -138 166 -140 185 0 5 -14
20 -30 33 -23 18 -33 21 -42 12 -16 -16 -60 -14 -83 4 -10 8 -29 15 -40 15
-12 0 -35 16 -52 36 -17 20 -70 76 -117 125 -47 49 -85 93 -85 97 0 4 -25 28
-54 54 -49 43 -56 46 -70 33z"/>
</g>
</svg>
